<svg xmlns="http://www.w3.org/2000/svg" xmlns:xlink="http://www.w3.org/1999/xlink" width="226pt" height="221pt" viewBox="0 0 226 221"><g id="graph0" class="graph" transform="scale(1 1) rotate(0) translate(4 217)"><title>G</title><polygon fill="#fff" stroke="transparent" points="-4 4 -4 -217 222 -217 222 4 -4 4"/><g id="node1" class="node"><title>mulle-sde</title><polygon fill="none" stroke="#000" points="63.5 -176.5 63.5 -212.5 149.5 -212.5 149.5 -176.5 63.5 -176.5"/><text x="106.5" y="-190.8" font-family="Times,serif" font-size="14" text-anchor="middle">mulle-sde</text></g><g id="node2" class="node"><title>mulle-monitor</title><polygon fill="none" stroke="#1e90ff" stroke-width="2" points="48 -88.5 48 -124.5 165 -124.5 165 -88.5 48 -88.5"/><text x="106.5" y="-102.8" fill="#1e90ff" font-family="Times,serif" font-size="14" text-anchor="middle">mulle-monitor</text></g><g id="edge1" class="edge"><title>mulle-sde-&gt;mulle-monitor</title><path fill="none" stroke="#000" stroke-dasharray="1 5" d="M106.5,-176.1C106.5,-164.25 106.5,-148.32 106.5,-134.79"/><polygon fill="#000" stroke="#000" points="110 -134.58 106.5 -124.58 103 -134.58 110 -134.58"/><text x="125" y="-146.8" font-family="Times,serif" font-size="14" text-anchor="middle">runs</text></g><g id="node3" class="node"><title>mulle-craft</title><polygon fill="none" stroke="#000" points="0 -.5 0 -36.5 95 -36.5 95 -.5 0 -.5"/><text x="47.5" y="-14.8" font-family="Times,serif" font-size="14" text-anchor="middle">mulle-craft</text></g><g id="edge2" class="edge"><title>mulle-monitor-&gt;mulle-craft</title><path fill="none" stroke="#000" stroke-dasharray="1 5" d="M94.56,-88.1C86.11,-75.78 74.63,-59.05 65.13,-45.2"/><polygon fill="#000" stroke="#000" points="67.76 -42.85 59.22 -36.58 61.99 -46.81 67.76 -42.85"/><text x="100" y="-58.8" font-family="Times,serif" font-size="14" text-anchor="middle">runs</text></g><g id="node4" class="node"><title>mulle-match</title><polygon fill="none" stroke="#000" points="113 -.5 113 -36.5 218 -36.5 218 -.5 113 -.5"/><text x="165.5" y="-14.8" font-family="Times,serif" font-size="14" text-anchor="middle">mulle-match</text></g><g id="edge3" class="edge"><title>mulle-monitor-&gt;mulle-match</title><path fill="none" stroke="#000" stroke-dasharray="1 5" d="M118.44,-88.1C126.89,-75.78 138.37,-59.05 147.87,-45.2"/><polygon fill="#000" stroke="#000" points="151.01 -46.81 153.78 -36.58 145.24 -42.85 151.01 -46.81"/><text x="158" y="-58.8" font-family="Times,serif" font-size="14" text-anchor="middle">runs</text></g></g></svg>