<?xml version="1.0" encoding="UTF-8" standalone="no"?>
<!DOCTYPE svg PUBLIC "-//W3C//DTD SVG 1.1//EN"
 "http://www.w3.org/Graphics/SVG/1.1/DTD/svg11.dtd">
<!-- Generated by graphviz version 2.43.0 (0)
 -->
<!-- Title: G Pages: 1 -->
<svg width="226pt" height="221pt"
 viewBox="0.00 0.00 226.00 221.00" xmlns="http://www.w3.org/2000/svg" xmlns:xlink="http://www.w3.org/1999/xlink">
<g id="graph0" class="graph" transform="scale(1 1) rotate(0) translate(4 217)">
<title>G</title>
<polygon fill="white" stroke="transparent" points="-4,4 -4,-217 222,-217 222,4 -4,4"/>
<!-- mulle&#45;sde -->
<g id="node1" class="node">
<title>mulle&#45;sde</title>
<polygon fill="none" stroke="black" points="63.5,-176.5 63.5,-212.5 149.5,-212.5 149.5,-176.5 63.5,-176.5"/>
<text text-anchor="middle" x="106.5" y="-190.8" font-family="Times,serif" font-size="14.00">mulle&#45;sde</text>
</g>
<!-- mulle&#45;monitor -->
<g id="node2" class="node">
<title>mulle&#45;monitor</title>
<polygon fill="none" stroke="dodgerblue" stroke-width="2" points="48,-88.5 48,-124.5 165,-124.5 165,-88.5 48,-88.5"/>
<text text-anchor="middle" x="106.5" y="-102.8" font-family="Times,serif" font-size="14.00" fill="dodgerblue">mulle&#45;monitor</text>
</g>
<!-- mulle&#45;sde&#45;&gt;mulle&#45;monitor -->
<g id="edge1" class="edge">
<title>mulle&#45;sde&#45;&gt;mulle&#45;monitor</title>
<path fill="none" stroke="black" stroke-dasharray="1,5" d="M106.5,-176.1C106.5,-164.25 106.5,-148.32 106.5,-134.79"/>
<polygon fill="black" stroke="black" points="110,-134.58 106.5,-124.58 103,-134.58 110,-134.58"/>
<text text-anchor="middle" x="125" y="-146.8" font-family="Times,serif" font-size="14.00"> runs</text>
</g>
<!-- mulle&#45;craft -->
<g id="node3" class="node">
<title>mulle&#45;craft</title>
<polygon fill="none" stroke="black" points="0,-0.5 0,-36.5 95,-36.5 95,-0.5 0,-0.5"/>
<text text-anchor="middle" x="47.5" y="-14.8" font-family="Times,serif" font-size="14.00">mulle&#45;craft</text>
</g>
<!-- mulle&#45;monitor&#45;&gt;mulle&#45;craft -->
<g id="edge2" class="edge">
<title>mulle&#45;monitor&#45;&gt;mulle&#45;craft</title>
<path fill="none" stroke="black" stroke-dasharray="1,5" d="M94.56,-88.1C86.11,-75.78 74.63,-59.05 65.13,-45.2"/>
<polygon fill="black" stroke="black" points="67.76,-42.85 59.22,-36.58 61.99,-46.81 67.76,-42.85"/>
<text text-anchor="middle" x="100" y="-58.8" font-family="Times,serif" font-size="14.00"> runs</text>
</g>
<!-- mulle&#45;match -->
<g id="node4" class="node">
<title>mulle&#45;match</title>
<polygon fill="none" stroke="black" points="113,-0.5 113,-36.5 218,-36.5 218,-0.5 113,-0.5"/>
<text text-anchor="middle" x="165.5" y="-14.8" font-family="Times,serif" font-size="14.00">mulle&#45;match</text>
</g>
<!-- mulle&#45;monitor&#45;&gt;mulle&#45;match -->
<g id="edge3" class="edge">
<title>mulle&#45;monitor&#45;&gt;mulle&#45;match</title>
<path fill="none" stroke="black" stroke-dasharray="1,5" d="M118.44,-88.1C126.89,-75.78 138.37,-59.05 147.87,-45.2"/>
<polygon fill="black" stroke="black" points="151.01,-46.81 153.78,-36.58 145.24,-42.85 151.01,-46.81"/>
<text text-anchor="middle" x="158" y="-58.8" font-family="Times,serif" font-size="14.00"> runs</text>
</g>
</g>
</svg>
