<?xml version="1.0" encoding="UTF-8" standalone="no"?>
<!DOCTYPE svg PUBLIC "-//W3C//DTD SVG 1.1//EN"
 "http://www.w3.org/Graphics/SVG/1.1/DTD/svg11.dtd">
<!-- Generated by graphviz version 2.43.0 (0)
 -->
<!-- Title: G Pages: 1 -->
<svg width="999pt" height="452pt"
 viewBox="0.00 0.00 999.00 452.00" xmlns="http://www.w3.org/2000/svg" xmlns:xlink="http://www.w3.org/1999/xlink">
<g id="graph0" class="graph" transform="scale(1 1) rotate(0) translate(4 448)">
<title>G</title>
<polygon fill="white" stroke="transparent" points="-4,4 -4,-448 995,-448 995,4 -4,4"/>
<!-- mulle&#45;monitor match -->
<g id="node1" class="node">
<title>mulle&#45;monitor match</title>
<text text-anchor="middle" x="737.5" y="-422.3" font-family="monospace" font-size="14.00" fill="blue">mulle&#45;monitor match</text>
</g>
<!-- .mulle&#45;monitor -->
<g id="node2" class="node">
<title>.mulle&#45;monitor</title>
<polygon fill="none" stroke="black" points="798.5,-357 795.5,-361 774.5,-361 771.5,-357 676.5,-357 676.5,-321 798.5,-321 798.5,-357"/>
<text text-anchor="middle" x="737.5" y="-335.3" font-family="Times,serif" font-size="14.00">.mulle&#45;monitor</text>
</g>
<!-- mulle&#45;monitor match&#45;&gt;.mulle&#45;monitor -->
<g id="edge8" class="edge">
<title>mulle&#45;monitor match&#45;&gt;.mulle&#45;monitor</title>
<path fill="none" stroke="#d1d8e0" stroke-dasharray="1,5" d="M737.5,-407.8C737.5,-396.16 737.5,-380.55 737.5,-367.24"/>
<polygon fill="#d1d8e0" stroke="#d1d8e0" points="741,-367.18 737.5,-357.18 734,-367.18 741,-367.18"/>
<text text-anchor="middle" x="754" y="-378.8" font-family="Times,serif" font-size="14.00">read</text>
</g>
<!-- etc -->
<g id="node9" class="node">
<title>etc</title>
<polygon fill="none" stroke="black" points="414.5,-284 411.5,-288 390.5,-288 387.5,-284 360.5,-284 360.5,-248 414.5,-248 414.5,-284"/>
<text text-anchor="middle" x="387.5" y="-262.3" font-family="Times,serif" font-size="14.00">etc</text>
</g>
<!-- .mulle&#45;monitor&#45;&gt;etc -->
<g id="edge1" class="edge">
<title>.mulle&#45;monitor&#45;&gt;etc</title>
<path fill="none" stroke="black" d="M676.13,-325.55C599.09,-309.92 470.26,-283.79 414.54,-272.49"/>
</g>
<!-- match.d -->
<g id="node3" class="node">
<title>match.d</title>
<polygon fill="none" stroke="black" points="614.5,-211 611.5,-215 590.5,-215 587.5,-211 540.5,-211 540.5,-175 614.5,-175 614.5,-211"/>
<text text-anchor="middle" x="577.5" y="-189.3" font-family="Times,serif" font-size="14.00">match.d</text>
</g>
<!-- s_source -->
<g id="node5" class="node">
<title>s_source</title>
<polygon fill="none" stroke="#20bf6b" points="481,-124 344,-124 344,-88 487,-88 487,-118 481,-124"/>
<polyline fill="none" stroke="#20bf6b" points="481,-124 481,-118 "/>
<polyline fill="none" stroke="#20bf6b" points="487,-118 481,-118 "/>
<text text-anchor="middle" x="415.5" y="-102.3" font-family="Times,serif" font-size="14.00" fill="#20bf6b">01&#45;source&#45;&#45;source</text>
</g>
<!-- match.d&#45;&gt;s_source -->
<g id="edge4" class="edge">
<title>match.d&#45;&gt;s_source</title>
<path fill="none" stroke="black" d="M544.72,-174.8C516.52,-160 476.06,-138.78 447.96,-124.03"/>
</g>
<!-- s_header -->
<g id="node6" class="node">
<title>s_header</title>
<polygon fill="none" stroke="#20bf6b" points="644,-124 505,-124 505,-88 650,-88 650,-118 644,-124"/>
<polyline fill="none" stroke="#20bf6b" points="644,-124 644,-118 "/>
<polyline fill="none" stroke="#20bf6b" points="650,-118 644,-118 "/>
<text text-anchor="middle" x="577.5" y="-102.3" font-family="Times,serif" font-size="14.00" fill="#20bf6b">00&#45;source&#45;&#45;header</text>
</g>
<!-- match.d&#45;&gt;s_header -->
<g id="edge3" class="edge">
<title>match.d&#45;&gt;s_header</title>
<path fill="none" stroke="black" d="M577.5,-174.8C577.5,-160.05 577.5,-138.92 577.5,-124.18"/>
</g>
<!-- s_test -->
<g id="node7" class="node">
<title>s_test</title>
<polygon fill="none" stroke="#20bf6b" points="755,-124 668,-124 668,-88 761,-88 761,-118 755,-124"/>
<polyline fill="none" stroke="#20bf6b" points="755,-124 755,-118 "/>
<polyline fill="none" stroke="#20bf6b" points="761,-118 755,-118 "/>
<text text-anchor="middle" x="714.5" y="-102.3" font-family="Times,serif" font-size="14.00" fill="#20bf6b">02&#45;test&#45;&#45;all</text>
</g>
<!-- match.d&#45;&gt;s_test -->
<g id="edge5" class="edge">
<title>match.d&#45;&gt;s_test</title>
<path fill="none" stroke="black" d="M605.22,-174.8C628.99,-160.05 663.06,-138.92 686.82,-124.18"/>
</g>
<!-- ignore2 -->
<g id="node4" class="node">
<title>ignore2</title>
<polygon fill="none" stroke="black" points="193.5,-211 190.5,-215 169.5,-215 166.5,-211 117.5,-211 117.5,-175 193.5,-175 193.5,-211"/>
<text text-anchor="middle" x="155.5" y="-189.3" font-family="Times,serif" font-size="14.00">ignore.d</text>
</g>
<!-- s_build -->
<g id="node8" class="node">
<title>s_build</title>
<polygon fill="none" stroke="#20bf6b" points="113,-124 0,-124 0,-88 119,-88 119,-118 113,-124"/>
<polyline fill="none" stroke="#20bf6b" points="113,-124 113,-118 "/>
<polyline fill="none" stroke="#20bf6b" points="119,-118 113,-118 "/>
<text text-anchor="middle" x="59.5" y="-102.3" font-family="Times,serif" font-size="14.00" fill="#20bf6b">00&#45;build&#45;&#45;none</text>
</g>
<!-- ignore2&#45;&gt;s_build -->
<g id="edge7" class="edge">
<title>ignore2&#45;&gt;s_build</title>
<path fill="none" stroke="black" d="M136.07,-174.8C119.42,-160.05 95.55,-138.92 78.9,-124.18"/>
</g>
<!-- MULLE_MONITOR_ETC_DIR -->
<g id="node10" class="node">
<title>MULLE_MONITOR_ETC_DIR</title>
<polygon fill="none" stroke="#2d98da" points="300.5,-0.5 300.5,-36.5 522.5,-36.5 522.5,-0.5 300.5,-0.5"/>
<text text-anchor="middle" x="411.5" y="-14.8" font-family="Times,serif" font-size="14.00" fill="#2d98da">MULLE_MONITOR_ETC_DIR</text>
</g>
<!-- s_source&#45;&gt;MULLE_MONITOR_ETC_DIR -->
<!-- MULLE_MONITOR_MATCH_DIR -->
<g id="node11" class="node">
<title>MULLE_MONITOR_MATCH_DIR</title>
<polygon fill="none" stroke="#2d98da" points="541,-0.5 541,-36.5 788,-36.5 788,-0.5 541,-0.5"/>
<text text-anchor="middle" x="664.5" y="-14.8" font-family="Times,serif" font-size="14.00" fill="#2d98da">MULLE_MONITOR_MATCH_DIR</text>
</g>
<!-- s_source&#45;&gt;MULLE_MONITOR_MATCH_DIR -->
<!-- MULLE_MONITOR_DIR -->
<g id="node12" class="node">
<title>MULLE_MONITOR_DIR</title>
<polygon fill="none" stroke="#2d98da" points="806,-0.5 806,-36.5 991,-36.5 991,-0.5 806,-0.5"/>
<text text-anchor="middle" x="898.5" y="-14.8" font-family="Times,serif" font-size="14.00" fill="#2d98da">MULLE_MONITOR_DIR</text>
</g>
<!-- s_source&#45;&gt;MULLE_MONITOR_DIR -->
<!-- etc&#45;&gt;match.d -->
<g id="edge2" class="edge">
<title>etc&#45;&gt;match.d</title>
<path fill="none" stroke="black" d="M414.72,-254.83C447.66,-242.52 503.28,-221.73 540.19,-207.94"/>
</g>
<!-- etc&#45;&gt;ignore2 -->
<g id="edge6" class="edge">
<title>etc&#45;&gt;ignore2</title>
<path fill="none" stroke="black" d="M360.43,-256.72C319.19,-244.1 240.48,-220.01 193.52,-205.64"/>
</g>
<!-- MULLE_MONITOR_ETC_DIR&#45;&gt;etc -->
<g id="edge14" class="edge">
<title>MULLE_MONITOR_ETC_DIR&#45;&gt;etc</title>
<path fill="none" stroke="#2d98da" stroke-dasharray="1,5" d="M382.76,-36.53C365.55,-48.5 345.18,-66.25 335.5,-88 312.55,-139.57 345.85,-204.03 368.82,-239.19"/>
<polygon fill="#2d98da" stroke="#2d98da" points="366.19,-241.55 374.69,-247.88 372,-237.63 366.19,-241.55"/>
<text text-anchor="middle" x="367" y="-145.8" font-family="Times,serif" font-size="14.00" fill="#2d98da"> reference</text>
</g>
<!-- MULLE_MONITOR_MATCH_DIR&#45;&gt;match.d -->
<g id="edge12" class="edge">
<title>MULLE_MONITOR_MATCH_DIR&#45;&gt;match.d</title>
<path fill="none" stroke="#2d98da" stroke-dasharray="1,5" d="M762.5,-36.57C770.6,-41.35 777.83,-47.39 783.5,-55 802.15,-80.02 791.41,-100.83 770.5,-124 733.04,-165.51 668.7,-181.68 624.68,-187.98"/>
<polygon fill="#2d98da" stroke="#2d98da" points="623.97,-184.54 614.51,-189.31 624.88,-191.48 623.97,-184.54"/>
<text text-anchor="middle" x="828" y="-102.3" font-family="Times,serif" font-size="14.00" fill="#2d98da"> reference</text>
</g>
<!-- MULLE_MONITOR_DIR&#45;&gt;.mulle&#45;monitor -->
<g id="edge13" class="edge">
<title>MULLE_MONITOR_DIR&#45;&gt;.mulle&#45;monitor</title>
<path fill="none" stroke="#2d98da" stroke-dasharray="1,5" d="M898.5,-36.53C898.5,-53.79 898.5,-81.25 898.5,-105 898.5,-267 898.5,-267 898.5,-267 898.5,-309.09 851.87,-326.44 808.8,-333.49"/>
<polygon fill="#2d98da" stroke="#2d98da" points="808.21,-330.04 798.83,-334.95 809.23,-336.96 808.21,-330.04"/>
<text text-anchor="middle" x="935" y="-189.3" font-family="Times,serif" font-size="14.00" fill="#2d98da"> reference</text>
</g>
<!-- MULLE_MONITOR_IGNORE_DIR -->
<g id="node13" class="node">
<title>MULLE_MONITOR_IGNORE_DIR</title>
<polygon fill="none" stroke="#2d98da" points="29,-0.5 29,-36.5 282,-36.5 282,-0.5 29,-0.5"/>
<text text-anchor="middle" x="155.5" y="-14.8" font-family="Times,serif" font-size="14.00" fill="#2d98da">MULLE_MONITOR_IGNORE_DIR</text>
</g>
<!-- MULLE_MONITOR_IGNORE_DIR&#45;&gt;ignore2 -->
<g id="edge15" class="edge">
<title>MULLE_MONITOR_IGNORE_DIR&#45;&gt;ignore2</title>
<path fill="none" stroke="#2d98da" stroke-dasharray="1,5" d="M155.5,-36.6C155.5,-66.52 155.5,-128.58 155.5,-164.56"/>
<polygon fill="#2d98da" stroke="#2d98da" points="152,-164.83 155.5,-174.83 159,-164.83 152,-164.83"/>
<text text-anchor="middle" x="192" y="-102.3" font-family="Times,serif" font-size="14.00" fill="#2d98da"> reference</text>
</g>
</g>
</svg>
