<?xml version="1.0" encoding="UTF-8" standalone="no"?>
<!DOCTYPE svg PUBLIC "-//W3C//DTD SVG 1.1//EN"
 "http://www.w3.org/Graphics/SVG/1.1/DTD/svg11.dtd">
<!-- Generated by graphviz version 2.43.0 (0)
 -->
<!-- Title: G Pages: 1 -->
<svg width="556pt" height="306pt"
 viewBox="0.00 0.00 556.22 306.00" xmlns="http://www.w3.org/2000/svg" xmlns:xlink="http://www.w3.org/1999/xlink">
<g id="graph0" class="graph" transform="scale(1 1) rotate(0) translate(4 302)">
<title>G</title>
<polygon fill="white" stroke="transparent" points="-4,4 -4,-302 552.22,-302 552.22,4 -4,4"/>
<!-- mulle&#45;monitor run -->
<g id="node1" class="node">
<title>mulle&#45;monitor run</title>
<text text-anchor="middle" x="78.5" y="-276.3" font-family="monospace" font-size="14.00" fill="blue">mulle&#45;monitor run</text>
</g>
<!-- fswatch -->
<g id="node5" class="node">
<title>fswatch</title>
<text text-anchor="middle" x="78.5" y="-188.8" font-family="monospace" font-size="14.00" fill="blue">fswatch</text>
</g>
<!-- mulle&#45;monitor run&#45;&gt;fswatch -->
<g id="edge1" class="edge">
<title>mulle&#45;monitor run&#45;&gt;fswatch</title>
<path fill="none" stroke="black" d="M78.5,-261.7C78.5,-249.99 78.5,-234.29 78.5,-220.9"/>
<polygon fill="black" stroke="black" points="82,-220.78 78.5,-210.78 75,-220.78 82,-220.78"/>
<text text-anchor="middle" x="93.5" y="-232.8" font-family="Times,serif" font-size="14.00"> run</text>
</g>
<!-- event -->
<g id="node2" class="node">
<title>event</title>
<polygon fill="none" stroke="black" points="78.5,-123 27.05,-105 78.5,-87 129.95,-105 78.5,-123"/>
<text text-anchor="middle" x="78.5" y="-101.3" font-family="Times,serif" font-size="14.00">event</text>
</g>
<!-- patternfile -->
<g id="node8" class="node">
<title>patternfile</title>
<polygon fill="none" stroke="#20bf6b" points="207.5,-36 121.5,-36 121.5,0 213.5,0 213.5,-30 207.5,-36"/>
<polyline fill="none" stroke="#20bf6b" points="207.5,-36 207.5,-30 "/>
<polyline fill="none" stroke="#20bf6b" points="213.5,-30 207.5,-30 "/>
<text text-anchor="middle" x="167.5" y="-14.3" font-family="Times,serif" font-size="14.00" fill="#20bf6b">patternfile</text>
</g>
<!-- event&#45;&gt;patternfile -->
<g id="edge3" class="edge">
<title>event&#45;&gt;patternfile</title>
<path fill="none" stroke="black" d="M91.63,-91.46C104.76,-78.92 125.31,-59.3 141.71,-43.63"/>
<polygon fill="black" stroke="black" points="144.56,-45.75 149.38,-36.31 139.73,-40.69 144.56,-45.75"/>
<text text-anchor="middle" x="153" y="-57.8" font-family="Times,serif" font-size="14.00"> match</text>
</g>
<!-- task name -->
<g id="node3" class="node">
<title>task name</title>
<polygon fill="none" stroke="black" points="465.5,-123 382.55,-105 465.5,-87 548.45,-105 465.5,-123"/>
<text text-anchor="middle" x="465.5" y="-101.3" font-family="Times,serif" font-size="14.00">task name</text>
</g>
<!-- task -->
<g id="node7" class="node">
<title>task</title>
<polygon fill="none" stroke="#8854d0" points="438.5,-174.5 438.5,-210.5 492.5,-210.5 492.5,-174.5 438.5,-174.5"/>
<text text-anchor="middle" x="465.5" y="-188.8" font-family="Times,serif" font-size="14.00" fill="#8854d0">task</text>
</g>
<!-- task name&#45;&gt;task -->
<g id="edge5" class="edge">
<title>task name&#45;&gt;task</title>
<path fill="none" stroke="black" d="M465.5,-123.28C465.5,-134.98 465.5,-150.68 465.5,-164.07"/>
<polygon fill="black" stroke="black" points="462,-164.2 465.5,-174.2 469,-164.2 462,-164.2"/>
<text text-anchor="middle" x="503" y="-144.8" font-family="Times,serif" font-size="14.00"> async run</text>
</g>
<!-- callback name -->
<g id="node4" class="node">
<title>callback name</title>
<polygon fill="none" stroke="black" points="256.5,-123 148.08,-105 256.5,-87 364.92,-105 256.5,-123"/>
<text text-anchor="middle" x="256.5" y="-101.3" font-family="Times,serif" font-size="14.00">callback name</text>
</g>
<!-- callback -->
<g id="node6" class="node">
<title>callback</title>
<polygon fill="none" stroke="#8854d0" points="250.5,-174.5 250.5,-210.5 324.5,-210.5 324.5,-174.5 250.5,-174.5"/>
<text text-anchor="middle" x="287.5" y="-188.8" font-family="Times,serif" font-size="14.00" fill="#8854d0">callback</text>
</g>
<!-- callback name&#45;&gt;callback -->
<g id="edge4" class="edge">
<title>callback name&#45;&gt;callback</title>
<path fill="none" stroke="black" d="M262.34,-122.12C266.68,-134.08 272.69,-150.65 277.75,-164.61"/>
<polygon fill="black" stroke="black" points="274.53,-165.99 281.23,-174.2 281.11,-163.6 274.53,-165.99"/>
<text text-anchor="middle" x="289.5" y="-144.8" font-family="Times,serif" font-size="14.00"> run</text>
</g>
<!-- fswatch&#45;&gt;event -->
<g id="edge2" class="edge">
<title>fswatch&#45;&gt;event</title>
<path fill="none" stroke="black" d="M78.5,-174.2C78.5,-162.49 78.5,-146.79 78.5,-133.4"/>
<polygon fill="black" stroke="black" points="82,-133.28 78.5,-123.28 75,-133.28 82,-133.28"/>
<text text-anchor="middle" x="110" y="-144.8" font-family="Times,serif" font-size="14.00"> produce</text>
</g>
<!-- callback&#45;&gt;task name -->
<g id="edge7" class="edge">
<title>callback&#45;&gt;task name</title>
<path fill="none" stroke="black" d="M323.09,-174.4C354.81,-159.17 400.9,-137.03 431.97,-122.1"/>
<polygon fill="black" stroke="black" points="433.6,-125.2 441.1,-117.72 430.57,-118.89 433.6,-125.2"/>
<text text-anchor="middle" x="424" y="-144.8" font-family="Times,serif" font-size="14.00"> produce</text>
</g>
<!-- patternfile&#45;&gt;callback name -->
<g id="edge6" class="edge">
<title>patternfile&#45;&gt;callback name</title>
<path fill="none" stroke="black" d="M185.58,-36.27C199.45,-49.52 218.69,-67.89 233.63,-82.16"/>
<polygon fill="black" stroke="black" points="231.35,-84.82 241,-89.19 236.18,-79.76 231.35,-84.82"/>
<text text-anchor="middle" x="249" y="-57.8" font-family="Times,serif" font-size="14.00"> produce</text>
</g>
</g>
</svg>
