<svg xmlns="http://www.w3.org/2000/svg" xmlns:xlink="http://www.w3.org/1999/xlink" width="556pt" height="408" viewBox="0 0 556.22 306"><g id="graph0" class="graph" transform="scale(1 1) rotate(0) translate(4 302)"><title>G</title><polygon fill="#fff" stroke="transparent" points="-4 4 -4 -302 552.22 -302 552.22 4 -4 4"/><g id="node1" class="node"><title>mulle-monitor run</title><text x="78.5" y="-276.3" fill="#00f" font-family="monospace" font-size="14" text-anchor="middle">mulle-monitor run</text></g><g id="node5" class="node"><title>fswatch</title><text x="78.5" y="-188.8" fill="#00f" font-family="monospace" font-size="14" text-anchor="middle">fswatch</text></g><g id="edge1" class="edge"><title>mulle-monitor run-&gt;fswatch</title><path fill="none" stroke="#000" d="M78.5,-261.7C78.5,-249.99 78.5,-234.29 78.5,-220.9"/><polygon fill="#000" stroke="#000" points="82 -220.78 78.5 -210.78 75 -220.78 82 -220.78"/><text x="93.5" y="-232.8" font-family="Times,serif" font-size="14" text-anchor="middle">run</text></g><g id="node2" class="node"><title>event</title><polygon fill="none" stroke="#000" points="78.5 -123 27.05 -105 78.5 -87 129.95 -105 78.5 -123"/><text x="78.5" y="-101.3" font-family="Times,serif" font-size="14" text-anchor="middle">event</text></g><g id="node8" class="node"><title>patternfile</title><polygon fill="none" stroke="#20bf6b" points="207.5 -36 121.5 -36 121.5 0 213.5 0 213.5 -30 207.5 -36"/><polyline fill="none" stroke="#20bf6b" points="207.5 -36 207.5 -30"/><polyline fill="none" stroke="#20bf6b" points="213.5 -30 207.5 -30"/><text x="167.5" y="-14.3" fill="#20bf6b" font-family="Times,serif" font-size="14" text-anchor="middle">patternfile</text></g><g id="edge3" class="edge"><title>event-&gt;patternfile</title><path fill="none" stroke="#000" d="M91.63,-91.46C104.76,-78.92 125.31,-59.3 141.71,-43.63"/><polygon fill="#000" stroke="#000" points="144.56 -45.75 149.38 -36.31 139.73 -40.69 144.56 -45.75"/><text x="153" y="-57.8" font-family="Times,serif" font-size="14" text-anchor="middle">match</text></g><g id="node3" class="node"><title>task name</title><polygon fill="none" stroke="#000" points="465.5 -123 382.55 -105 465.5 -87 548.45 -105 465.5 -123"/><text x="465.5" y="-101.3" font-family="Times,serif" font-size="14" text-anchor="middle">task name</text></g><g id="node7" class="node"><title>task</title><polygon fill="none" stroke="#8854d0" points="438.5 -174.5 438.5 -210.5 492.5 -210.5 492.5 -174.5 438.5 -174.5"/><text x="465.5" y="-188.8" fill="#8854d0" font-family="Times,serif" font-size="14" text-anchor="middle">task</text></g><g id="edge5" class="edge"><title>task name-&gt;task</title><path fill="none" stroke="#000" d="M465.5,-123.28C465.5,-134.98 465.5,-150.68 465.5,-164.07"/><polygon fill="#000" stroke="#000" points="462 -164.2 465.5 -174.2 469 -164.2 462 -164.2"/><text x="503" y="-144.8" font-family="Times,serif" font-size="14" text-anchor="middle">async run</text></g><g id="node4" class="node"><title>callback name</title><polygon fill="none" stroke="#000" points="256.5 -123 148.08 -105 256.5 -87 364.92 -105 256.5 -123"/><text x="256.5" y="-101.3" font-family="Times,serif" font-size="14" text-anchor="middle">callback name</text></g><g id="node6" class="node"><title>callback</title><polygon fill="none" stroke="#8854d0" points="250.5 -174.5 250.5 -210.5 324.5 -210.5 324.5 -174.5 250.5 -174.5"/><text x="287.5" y="-188.8" fill="#8854d0" font-family="Times,serif" font-size="14" text-anchor="middle">callback</text></g><g id="edge4" class="edge"><title>callback name-&gt;callback</title><path fill="none" stroke="#000" d="M262.34,-122.12C266.68,-134.08 272.69,-150.65 277.75,-164.61"/><polygon fill="#000" stroke="#000" points="274.53 -165.99 281.23 -174.2 281.11 -163.6 274.53 -165.99"/><text x="289.5" y="-144.8" font-family="Times,serif" font-size="14" text-anchor="middle">run</text></g><g id="edge2" class="edge"><title>fswatch-&gt;event</title><path fill="none" stroke="#000" d="M78.5,-174.2C78.5,-162.49 78.5,-146.79 78.5,-133.4"/><polygon fill="#000" stroke="#000" points="82 -133.28 78.5 -123.28 75 -133.28 82 -133.28"/><text x="110" y="-144.8" font-family="Times,serif" font-size="14" text-anchor="middle">produce</text></g><g id="edge7" class="edge"><title>callback-&gt;task name</title><path fill="none" stroke="#000" d="M323.09,-174.4C354.81,-159.17 400.9,-137.03 431.97,-122.1"/><polygon fill="#000" stroke="#000" points="433.6 -125.2 441.1 -117.72 430.57 -118.89 433.6 -125.2"/><text x="424" y="-144.8" font-family="Times,serif" font-size="14" text-anchor="middle">produce</text></g><g id="edge6" class="edge"><title>patternfile-&gt;callback name</title><path fill="none" stroke="#000" d="M185.58,-36.27C199.45,-49.52 218.69,-67.89 233.63,-82.16"/><polygon fill="#000" stroke="#000" points="231.35 -84.82 241 -89.19 236.18 -79.76 231.35 -84.82"/><text x="249" y="-57.8" font-family="Times,serif" font-size="14" text-anchor="middle">produce</text></g></g></svg>