<svg xmlns="http://www.w3.org/2000/svg" xmlns:xlink="http://www.w3.org/1999/xlink" width="562pt" height="116pt" viewBox="0 0 562 116"><g id="graph0" class="graph" transform="scale(1 1) rotate(0) translate(4 112)"><title>G</title><polygon fill="#fff" stroke="transparent" points="-4 4 -4 -112 558 -112 558 4 -4 4"/><g id="node1" class="node"><title>ignore.d</title><polygon fill="none" stroke="#000" points="97.5 -108 94.5 -112 73.5 -112 70.5 -108 21.5 -108 21.5 -72 97.5 -72 97.5 -108"/><text x="59.5" y="-86.3" font-family="Times,serif" font-size="14" text-anchor="middle">ignore.d</text></g><g id="node6" class="node"><title>s_build</title><polygon fill="none" stroke="#20bf6b" points="113 -36 0 -36 0 0 119 0 119 -30 113 -36"/><polyline fill="none" stroke="#20bf6b" points="113 -36 113 -30"/><polyline fill="none" stroke="#20bf6b" points="119 -30 113 -30"/><text x="59.5" y="-14.3" fill="#20bf6b" font-family="Times,serif" font-size="14" text-anchor="middle">00-build--none</text></g><g id="edge4" class="edge"><title>ignore.d-&gt;s_build</title><path fill="none" stroke="#000" d="M59.5,-71.7C59.5,-60.85 59.5,-46.92 59.5,-36.1"/></g><g id="node2" class="node"><title>match.d</title><polygon fill="none" stroke="#000" points="408.5 -108 405.5 -112 384.5 -112 381.5 -108 334.5 -108 334.5 -72 408.5 -72 408.5 -108"/><text x="371.5" y="-86.3" font-family="Times,serif" font-size="14" text-anchor="middle">match.d</text></g><g id="node3" class="node"><title>s_header</title><polygon fill="none" stroke="#20bf6b" points="276 -36 137 -36 137 0 282 0 282 -30 276 -36"/><polyline fill="none" stroke="#20bf6b" points="276 -36 276 -30"/><polyline fill="none" stroke="#20bf6b" points="282 -30 276 -30"/><text x="209.5" y="-14.3" fill="#20bf6b" font-family="Times,serif" font-size="14" text-anchor="middle">00-source--header</text></g><g id="edge1" class="edge"><title>match.d-&gt;s_header</title><path fill="none" stroke="#000" d="M334.33,-72.94C308.83,-61.92 275.03,-47.32 249.04,-36.08"/></g><g id="node4" class="node"><title>s_source</title><polygon fill="none" stroke="#20bf6b" points="437 -36 300 -36 300 0 443 0 443 -30 437 -36"/><polyline fill="none" stroke="#20bf6b" points="437 -36 437 -30"/><polyline fill="none" stroke="#20bf6b" points="443 -30 437 -30"/><text x="371.5" y="-14.3" fill="#20bf6b" font-family="Times,serif" font-size="14" text-anchor="middle">01-source--source</text></g><g id="edge2" class="edge"><title>match.d-&gt;s_source</title><path fill="none" stroke="#000" d="M371.5,-71.7C371.5,-60.85 371.5,-46.92 371.5,-36.1"/></g><g id="node5" class="node"><title>s_test</title><polygon fill="none" stroke="#20bf6b" points="548 -36 461 -36 461 0 554 0 554 -30 548 -36"/><polyline fill="none" stroke="#20bf6b" points="548 -36 548 -30"/><polyline fill="none" stroke="#20bf6b" points="554 -30 548 -30"/><text x="507.5" y="-14.3" fill="#20bf6b" font-family="Times,serif" font-size="14" text-anchor="middle">02-test--all</text></g><g id="edge3" class="edge"><title>match.d-&gt;s_test</title><path fill="none" stroke="#000" d="M404.77,-71.88C425.84,-61.03 453,-47.05 474.1,-36.19"/></g></g></svg>